<?xml version="1.0" encoding="UTF-8"?>
<svg version="1.1" xmlns="http://www.w3.org/2000/svg" width="302" height="90">
<path d="M0 0 C9.24 0 18.48 0 28 0 C29.19389182 15.41205806 27.6301981 23.22489136 18.67773438 35.63037109 C16.25399109 39.0536616 14.02561776 42.59408329 11.7722168 46.13085938 C4.19226532 58.01979084 4.19226532 58.01979084 0 63 C-1.32 62.67 -2.64 62.34 -4 62 C-3.65087249 55.80548038 -0.56648113 51.77966015 2.8125 46.8125 C3.99123625 45.02757538 5.1696127 43.24241312 6.34765625 41.45703125 C8.14240881 38.76418354 9.94605741 36.07887117 11.77294922 33.40771484 C20.90443602 20.43170506 20.90443602 20.43170506 23 5 C17.39 5 11.78 5 6 5 C6.07863281 6.92199219 6.15726563 8.84398437 6.23828125 10.82421875 C6.54321848 27.98941286 4.58210093 40.11629821 -6.51318359 54.02099609 C-8.21511917 56.14968105 -8.21511917 56.14968105 -9.68359375 59.5390625 C-12.50814921 62.53985498 -13.4140548 62.41546225 -17.421875 62.5859375 C-19.53204597 62.54612295 -21.64180774 62.47466 -23.75 62.375 C-25.36841797 62.33439453 -25.36841797 62.33439453 -27.01953125 62.29296875 C-29.68171065 62.22229142 -32.33984236 62.12368401 -35 62 C-35.85298628 56.0700394 -36.18277387 50.30050879 -36.1875 44.3125 C-36.19974609 43.48427734 -36.21199219 42.65605469 -36.22460938 41.80273438 C-36.22654297 40.99771484 -36.22847656 40.19269531 -36.23046875 39.36328125 C-36.23457764 38.64438721 -36.23868652 37.92549316 -36.24291992 37.18481445 C-36 35 -36 35 -34 30 C-25.09 30 -16.18 30 -7 30 C-6.67 31.65 -6.34 33.3 -6 35 C-8.50497004 36.25248502 -10.20853274 36.11374406 -13.0078125 36.09765625 C-13.99394531 36.09443359 -14.98007812 36.09121094 -15.99609375 36.08789062 C-17.02863281 36.07951172 -18.06117187 36.07113281 -19.125 36.0625 C-20.68541016 36.05573242 -20.68541016 36.05573242 -22.27734375 36.04882812 C-24.85158687 36.03701967 -27.42580053 36.01908385 -30 36 C-29.67 42.6 -29.34 49.2 -29 56 C-24.38 56 -19.76 56 -15 56 C-14.34 54.35 -13.68 52.7 -13 51 C-11.68725586 49.19604492 -11.68725586 49.19604492 -10.21484375 47.48046875 C1.3934916 32.65993009 0.5770031 17.98696207 0 0 Z " fill="#39AED9" transform="translate(38,0)"/>
<path d="M0 0 C2.475 0.495 2.475 0.495 5 1 C4.47775779 6.13203401 1.9367836 9.80012768 -0.75 14.0625 C-1.22937012 14.83529297 -1.70874023 15.60808594 -2.20263672 16.40429688 C-7.62361815 25.09593132 -13.23452074 33.66753167 -18.86767578 42.22265625 C-21.11237469 45.74603012 -21.27619882 48.45318277 -21.5625 52.625 C-21.706875 54.72875 -21.85125 56.8325 -22 59 C-13.585 58.505 -13.585 58.505 -5 58 C-5.06703125 56.06640625 -5.1340625 54.1328125 -5.203125 52.140625 C-5.42766322 35.67837238 -4.05227207 23.40578906 6.5246582 9.9675293 C8.04243297 8.05086654 8.04243297 8.05086654 9.09057617 5.93286133 C10.23705747 3.83734975 11.11919355 2.48267338 13 1 C16.97107839 0.15068761 20.77559107 0.33809028 24.8125 0.5625 C25.88693359 0.59408203 26.96136719 0.62566406 28.06835938 0.65820312 C30.71503569 0.74054417 33.35611094 0.85546443 36 1 C36.02465504 5.39656173 36.04283842 9.7930872 36.05493164 14.18969727 C36.05997121 15.68644918 36.06680287 17.18319616 36.07543945 18.67993164 C36.08752159 20.82699807 36.09323191 22.97399962 36.09765625 25.12109375 C36.10289307 26.4145874 36.10812988 27.70808105 36.11352539 29.04077148 C36 32 36 32 35 33 C33.00035018 33.08758003 30.9976389 33.10696576 28.99609375 33.09765625 C27.78115234 33.09443359 26.56621094 33.09121094 25.31445312 33.08789062 C24.03505859 33.07951172 22.75566406 33.07113281 21.4375 33.0625 C20.15423828 33.05798828 18.87097656 33.05347656 17.54882812 33.04882812 C14.36583978 33.03699545 11.18294238 33.02051068 8 33 C7.61781233 31.34385343 7.28604898 29.67542976 7 28 C8 27 8 27 10.22485352 26.88647461 C11.18319092 26.89171143 12.14152832 26.89694824 13.12890625 26.90234375 C14.68061523 26.90717773 14.68061523 26.90717773 16.26367188 26.91210938 C17.35228516 26.92048828 18.44089844 26.92886719 19.5625 26.9375 C21.2012207 26.94426758 21.2012207 26.94426758 22.87304688 26.95117188 C25.58205432 26.9630016 28.2910338 26.98093769 31 27 C30.67 20.4 30.34 13.8 30 7 C23.35003011 5.57244109 23.35003011 5.57244109 17 7 C12.36378455 11.73999195 9.29663449 17.86003537 6.23583984 23.68823242 C5 26 5 26 3.37817383 28.3359375 C1.60007204 31.77307599 1.56769984 34.40978788 1.48828125 38.26953125 C1.47033005 38.95053391 1.45237885 39.63153656 1.43388367 40.33317566 C1.38001369 42.4928888 1.34596218 44.65238399 1.3125 46.8125 C1.27930609 48.28323331 1.24481451 49.75393793 1.20898438 51.22460938 C1.12187302 54.81643348 1.06161364 58.40728734 1 62 C-8.24 62 -17.48 62 -27 62 C-28.54051752 45.40981136 -25.73730019 37.82319746 -15.93896484 24.68261719 C-12.4524698 19.85894461 -9.34575421 14.79195347 -6.1875 9.75 C-4.9945867 7.8690954 -3.80067624 5.98882261 -2.60546875 4.109375 C-1.7368345 2.73967507 -0.86828494 1.36992139 0 0 Z " fill="#21B6A8" transform="translate(63,28)"/>
<path d="M0 0 C3.485625 -0.061875 6.97125 -0.12375 10.5625 -0.1875 C12.18973999 -0.22846802 12.18973999 -0.22846802 13.84985352 -0.27026367 C19.70650057 -0.32036653 23.84925527 0.14462071 29 3 C31.63326457 5.63326457 31.71180635 7.32553101 32 11 C31.0625 13.6875 31.0625 13.6875 30 16 C30 16.99 30 17.98 30 19 C30.48597656 19.45503906 30.97195312 19.91007812 31.47265625 20.37890625 C34.04161299 23.10554831 33.46365408 26.04041508 33.359375 29.6171875 C33 32 33 32 31.1875 34.5625 C27.42141085 37.03735859 24.41830305 37.11911367 20.01953125 37.09765625 C18.97128174 37.09515869 17.92303223 37.09266113 16.84301758 37.09008789 C15.51294678 37.08098389 14.18287598 37.07187988 12.8125 37.0625 C8.584375 37.041875 4.35625 37.02125 0 37 C0 24.79 0 12.58 0 0 Z M8 6 C8 8.97 8 11.94 8 15 C10.10353495 15.0810206 12.20795952 15.13919907 14.3125 15.1875 C15.48425781 15.22230469 16.65601563 15.25710937 17.86328125 15.29296875 C20.99288464 15.28717399 20.99288464 15.28717399 22.91796875 13.48828125 C23.27503906 12.99714844 23.63210937 12.50601563 24 12 C23.29660434 9.49034386 23.29660434 9.49034386 22 7 C18.94059048 5.85272143 15.98858314 5.89488706 12.75 5.9375 C11.41195312 5.95103516 11.41195312 5.95103516 10.046875 5.96484375 C9.37140625 5.97644531 8.6959375 5.98804688 8 6 Z M8 22 C8 24.97 8 27.94 8 31 C10.43934225 31.13501894 12.87124104 31.23403897 15.3125 31.3125 C16.00279297 31.35439453 16.69308594 31.39628906 17.40429688 31.43945312 C19.69293125 31.54841587 19.69293125 31.54841587 23 31 C25.05363519 28.6230839 25.05363519 28.6230839 26 26 C25.02584088 23.86194182 25.02584088 23.86194182 23 22 C20.28770497 21.70357431 18.00260268 21.61938811 15.3125 21.75 C14.61060547 21.76804687 13.90871094 21.78609375 13.18554688 21.8046875 C11.45644564 21.85173787 9.72804795 21.92348127 8 22 Z " fill="#19BBAB" transform="translate(218,25)"/>
<path d="M0 0 C2.05078125 0.03255208 4.1015625 0.06510417 6.15234375 0.09765625 C8.43334032 5.20525346 10.7119386 10.31391092 12.98828125 15.42358398 C13.76365722 17.16313867 14.53969786 18.90239725 15.31640625 20.64135742 C16.43011893 23.13513626 17.54146831 25.62995625 18.65234375 28.125 C19.00232422 28.90729477 19.35230469 29.68958954 19.71289062 30.49559021 C22.15234375 35.98378454 22.15234375 35.98378454 22.15234375 37.09765625 C19.18234375 37.09765625 16.21234375 37.09765625 13.15234375 37.09765625 C12.16234375 34.78765625 11.17234375 32.47765625 10.15234375 30.09765625 C4.54234375 30.09765625 -1.06765625 30.09765625 -6.84765625 30.09765625 C-7.83765625 32.40765625 -8.82765625 34.71765625 -9.84765625 37.09765625 C-12.48765625 37.09765625 -15.12765625 37.09765625 -17.84765625 37.09765625 C-17.19126043 32.68591898 -15.56815272 28.8842727 -13.72265625 24.86328125 C-13.41569824 24.18465027 -13.10874023 23.50601929 -12.79248047 22.80682373 C-12.14602131 21.38034931 -11.49704707 19.95501232 -10.84570312 18.53076172 C-9.84572181 16.3434249 -8.85388844 14.15253331 -7.86328125 11.9609375 C-7.23354472 10.57400443 -6.60335241 9.1872782 -5.97265625 7.80078125 C-5.67472168 7.14354065 -5.37678711 6.48630005 -5.06982422 5.80914307 C-2.46747658 0.13041631 -2.46747658 0.13041631 0 0 Z M1.15234375 9.09765625 C0.31470107 11.05415022 -0.51764684 13.01291181 -1.34765625 14.97265625 C-1.81171875 16.06320313 -2.27578125 17.15375 -2.75390625 18.27734375 C-3.96818081 20.90427554 -3.96818081 20.90427554 -3.84765625 23.09765625 C-0.21765625 23.09765625 3.41234375 23.09765625 7.15234375 23.09765625 C6.38773608 19.27461792 5.67619593 16.71372387 4.08984375 13.28515625 C3.72761719 12.49496094 3.36539063 11.70476563 2.9921875 10.890625 C2.71503906 10.29894531 2.43789062 9.70726562 2.15234375 9.09765625 C1.82234375 9.09765625 1.49234375 9.09765625 1.15234375 9.09765625 Z " fill="#1EB9AA" transform="translate(182.84765625,24.90234375)"/>
<path d="M0 0 C4.92890098 -0.96817698 4.92890098 -0.96817698 8 0 C10.4728795 2.6624382 12.37617479 5.43933239 14.3359375 8.49609375 C15.75810452 11.08629807 15.75810452 11.08629807 18 12 C18.3403125 10.9790625 18.3403125 10.9790625 18.6875 9.9375 C21.99658703 2.53144807 21.99658703 2.53144807 25 0 C28.08534081 -0.59014908 30.89990949 -0.42550262 34 0 C32.0060512 4.49464702 28.95812211 8.31738541 26.01367188 12.22265625 C23.63397092 15.28362024 23.63397092 15.28362024 23.23095703 18.96606445 C24.0667631 21.17657251 25.07773654 22.75508264 26.50390625 24.63671875 C26.99697266 25.29607422 27.49003906 25.95542969 27.99804688 26.63476562 C28.51431641 27.31216797 29.03058594 27.98957031 29.5625 28.6875 C30.58660411 30.04408897 31.60884716 31.4020856 32.62890625 32.76171875 C33.08338135 33.35944092 33.53785645 33.95716309 34.00610352 34.57299805 C35 36 35 36 35 37 C31.48810455 37.63595692 28.48671481 37.85017139 25 37 C21.96436502 34.05506061 19.87233889 30.78187657 18 27 C18 26.34 18 25.68 18 25 C15.02060196 27.80914672 12.81456149 30.27325173 10.75 33.8125 C9.53515625 35.6171875 9.53515625 35.6171875 8 37 C4.91605333 37.59286665 2.09895418 37.42534665 -1 37 C2.42752566 30.5733894 6.65346984 24.83405626 11 19 C8.26598192 13.86004602 5.11573873 9.49202217 1.390625 5.015625 C0 3 0 3 0 0 Z " fill="#26B5A7" transform="translate(264,25)"/>
<path d="M0 0 C2.64 0 5.28 0 8 0 C8 10.23 8 20.46 8 31 C14.27 31 20.54 31 27 31 C27 32.98 27 34.96 27 37 C18.09 37 9.18 37 0 37 C0 24.79 0 12.58 0 0 Z " fill="#15BCAC" transform="translate(129,25)"/>
<path d="M0 0 C7.26 0 14.52 0 22 0 C22 0.33 22 0.66 22 1 C15.07 1 8.14 1 1 1 C1 12.55 1 24.1 1 36 C7.27 35.67 13.54 35.34 20 35 C19.67 34.34 19.34 33.68 19 33 C16.44648887 32.56947737 16.44648887 32.56947737 13.5 32.4375 C8.09628611 32.09628611 8.09628611 32.09628611 7 31 C6.92794489 29.31391034 6.91613932 27.62499341 6.9375 25.9375 C6.94652344 25.01839844 6.95554688 24.09929688 6.96484375 23.15234375 C6.98224609 22.08693359 6.98224609 22.08693359 7 21 C11.40914783 19.89771304 15.48382401 19.92345464 20 20 C20 18.68 20 17.36 20 16 C16.04 16 12.08 16 8 16 C8 15.67 8 15.34 8 15 C12.95 14.67 17.9 14.34 23 14 C22.67 12.02 22.34 10.04 22 8 C20.04836882 6.56362302 20.04836882 6.56362302 18 6 C20.375 5.8125 20.375 5.8125 23 6 C25.02350324 9.03525486 25.32124018 10.19426202 25.625 13.6875 C25.69976562 14.49574219 25.77453125 15.30398437 25.8515625 16.13671875 C25.92503906 17.05904297 25.92503906 17.05904297 26 18 C28.02558881 14.65060119 28.21738987 12.13037449 28.125 8.25 C28.09792969 6.77273437 28.09792969 6.77273437 28.0703125 5.265625 C28.04710937 4.51796875 28.02390625 3.7703125 28 3 C31 5 31 5 31.8125 7.8125 C32.01381992 11.23493863 31.40930222 12.93269516 30 16 C30 16.99 30 17.98 30 19 C30.48597656 19.45503906 30.97195312 19.91007812 31.47265625 20.37890625 C34.04161299 23.10554831 33.46365408 26.04041508 33.359375 29.6171875 C33 32 33 32 31.1875 34.5625 C27.42141085 37.03735859 24.41830305 37.11911367 20.01953125 37.09765625 C18.97128174 37.09515869 17.92303223 37.09266113 16.84301758 37.09008789 C15.51294678 37.08098389 14.18287598 37.07187988 12.8125 37.0625 C8.584375 37.041875 4.35625 37.02125 0 37 C0 24.79 0 12.58 0 0 Z M8 22 C8 24.97 8 27.94 8 31 C10.43934225 31.13501894 12.87124104 31.23403897 15.3125 31.3125 C16.00279297 31.35439453 16.69308594 31.39628906 17.40429688 31.43945312 C19.69293125 31.54841587 19.69293125 31.54841587 23 31 C25.05363519 28.6230839 25.05363519 28.6230839 26 26 C25.02584088 23.86194182 25.02584088 23.86194182 23 22 C20.28770497 21.70357431 18.00260268 21.61938811 15.3125 21.75 C14.61060547 21.76804687 13.90871094 21.78609375 13.18554688 21.8046875 C11.45644564 21.85173787 9.72804795 21.92348127 8 22 Z " fill="#2EB2A6" transform="translate(218,25)"/>
<path d="M0 0 C1.32 0 2.64 0 4 0 C4 11.22 4 22.44 4 34 C-4.58 34 -13.16 34 -22 34 C-22 32.68 -22 31.36 -22 30 C-15.07 30 -8.14 30 -1 30 C-0.67 20.1 -0.34 10.2 0 0 Z " fill="#17BBAE" transform="translate(59,56)"/>
<path d="M0 0 C0.33 0 0.66 0 1 0 C1.33 5.28 1.66 10.56 2 16 C2 12.37 2 8.74 2 5 C2.99 5 3.98 5 5 5 C6.32656872 23.75749615 6.63235874 37.865778 -6 53 C-6.66 51.68 -7.32 50.36 -8 49 C-7.01 49 -6.02 49 -5 49 C-5 47.68 -5 46.36 -5 45 C-4.01 44.505 -4.01 44.505 -3 44 C-3 43.34 -3 42.68 -3 42 C-3.99 42 -4.98 42 -6 42 C-5.0204778 39.36282485 -4.07463713 37.10684559 -2.45776367 34.79223633 C-0.59292258 31.22027392 -0.56834888 28.5311137 -0.48828125 24.51171875 C-0.47033005 23.80852005 -0.45237885 23.10532135 -0.43388367 22.3808136 C-0.3799952 20.14976883 -0.34595588 17.9189353 -0.3125 15.6875 C-0.27930776 14.16859053 -0.24481633 12.64970886 -0.20898438 11.13085938 C-0.12428305 7.42077584 -0.05736926 3.7106183 0 0 Z " fill="#3DACD6" transform="translate(38,0)"/>
<path d="M0 0 C2.64 0 5.28 0 8 0 C8 10.23 8 20.46 8 31 C14.27 31 20.54 31 27 31 C27 32.98 27 34.96 27 37 C18.09 37 9.18 37 0 37 C0 24.79 0 12.58 0 0 Z M2 2 C2 13.22 2 24.44 2 36 C9.92 36 17.84 36 26 36 C26 34.68 26 33.36 26 32 C19.73 31.67 13.46 31.34 7 31 C6.67 21.43 6.34 11.86 6 2 C4.68 2 3.36 2 2 2 Z " fill="#34AEA2" transform="translate(129,25)"/>
<path d="M0 0 C2.5654594 2.5654594 2.54046087 4.47686668 3 8 C3.59014893 8.00410889 4.18029785 8.00821777 4.78833008 8.01245117 C7.46407016 8.04536148 10.13752475 8.11599621 12.8125 8.1875 C14.2056543 8.19620117 14.2056543 8.19620117 15.62695312 8.20507812 C18.18224836 8.28810216 20.51209558 8.40649715 23 9 C25.13671875 11.55078125 25.13671875 11.55078125 26 14 C26.1490712 11.9254644 26.1490712 11.9254644 25 10 C26.65 10 28.3 10 30 10 C30.99 12.64 31.98 15.28 33 18 C30.03 18 27.06 18 24 18 C23.01 15.69 22.02 13.38 21 11 C15.39 11 9.78 11 4 11 C3.01 13.31 2.02 15.62 1 18 C-1.64 18 -4.28 18 -7 18 C-6.35534798 13.66695924 -4.81074878 10.13327935 -2.9375 6.1875 C-2.11572266 4.44533203 -2.11572266 4.44533203 -1.27734375 2.66796875 C-0.85582031 1.78753906 -0.43429688 0.90710937 0 0 Z " fill="#21B8A8" transform="translate(172,44)"/>
<path d="M0 0 C0.66 0 1.32 0 2 0 C2.02465504 4.39656173 2.04283842 8.7930872 2.05493164 13.18969727 C2.05997121 14.68644918 2.06680287 16.18319616 2.07543945 17.67993164 C2.08752159 19.82699807 2.09323191 21.97399962 2.09765625 24.12109375 C2.10551147 26.06133423 2.10551147 26.06133423 2.11352539 28.04077148 C2 31 2 31 1 32 C-0.99964982 32.08758003 -3.0023611 32.10696576 -5.00390625 32.09765625 C-6.21884766 32.09443359 -7.43378906 32.09121094 -8.68554688 32.08789062 C-9.96494141 32.07951172 -11.24433594 32.07113281 -12.5625 32.0625 C-13.84576172 32.05798828 -15.12902344 32.05347656 -16.45117188 32.04882812 C-19.63416022 32.03699545 -22.81705762 32.02051068 -26 32 C-26.38218767 30.34385343 -26.71395102 28.67542976 -27 27 C-26 26 -26 26 -23.77514648 25.88647461 C-22.81680908 25.89171143 -21.85847168 25.89694824 -20.87109375 25.90234375 C-19.31938477 25.90717773 -19.31938477 25.90717773 -17.73632812 25.91210938 C-16.64771484 25.92048828 -15.55910156 25.92886719 -14.4375 25.9375 C-12.7987793 25.94426758 -12.7987793 25.94426758 -11.12695312 25.95117188 C-8.41791505 25.96300174 -5.70898401 25.97948457 -3 26 C-5 28 -5 28 -7.15478516 28.22705078 C-8.02409668 28.21657715 -8.8934082 28.20610352 -9.7890625 28.1953125 C-10.73007813 28.18886719 -11.67109375 28.18242188 -12.640625 28.17578125 C-13.62546875 28.15902344 -14.6103125 28.14226563 -15.625 28.125 C-16.61757812 28.11597656 -17.61015625 28.10695313 -18.6328125 28.09765625 C-21.08878134 28.07404116 -23.54427168 28.04110799 -26 28 C-26 28.66 -26 29.32 -26 30 C-17.42 30 -8.84 30 0 30 C0 20.1 0 10.2 0 0 Z " fill="#34ACA2" transform="translate(97,29)"/>
<path d="M0 0 C1.12591553 0.00523682 2.25183105 0.01047363 3.41186523 0.01586914 C4.62680664 0.0190918 5.84174805 0.02231445 7.09350586 0.02563477 C8.37290039 0.03401367 9.65229492 0.04239258 10.97045898 0.05102539 C12.2537207 0.05553711 13.53698242 0.06004883 14.85913086 0.06469727 C18.04211921 0.07652994 21.22501661 0.09301471 24.40795898 0.11352539 C24.73795898 1.76352539 25.06795898 3.41352539 25.40795898 5.11352539 C22.90298895 6.36601041 21.19942625 6.22726946 18.40014648 6.21118164 C17.41401367 6.20795898 16.42788086 6.20473633 15.41186523 6.20141602 C14.37932617 6.19303711 13.34678711 6.1846582 12.28295898 6.17602539 C10.72254883 6.16925781 10.72254883 6.16925781 9.13061523 6.16235352 C6.55633937 6.15054491 3.98217752 6.13407614 1.40795898 6.11352539 C1.07795898 4.79352539 0.74795898 3.47352539 0.40795898 2.11352539 C-0.91204102 1.78352539 -2.23204102 1.45352539 -3.59204102 1.11352539 C-2.59204102 0.11352539 -2.59204102 0.11352539 0 0 Z " fill="#2FB2E3" transform="translate(6.592041015625,29.886474609375)"/>
<path d="M0 0 C7.26 0 14.52 0 22 0 C22 0.33 22 0.66 22 1 C15.07 1 8.14 1 1 1 C1 12.55 1 24.1 1 36 C7.27 35.67 13.54 35.34 20 35 C19.67 34.34 19.34 33.68 19 33 C16.41394668 32.5316735 16.41394668 32.5316735 13.4375 32.375 C12.42558594 32.30023438 11.41367188 32.22546875 10.37109375 32.1484375 C9.58863281 32.09945312 8.80617187 32.05046875 8 32 C8 31.67 8 31.34 8 31 C12.95 30.67 17.9 30.34 23 30 C23.66 28.35 24.32 26.7 25 25 C25.66 25 26.32 25 27 25 C26.67 27.97 26.34 30.94 26 34 C27.32 34.33 28.64 34.66 30 35 C26.56632144 37.09352976 23.90636407 37.23437612 19.921875 37.1953125 C18.87612305 37.19031738 17.83037109 37.18532227 16.75292969 37.18017578 C15.43196289 37.16196777 14.11099609 37.14375977 12.75 37.125 C8.5425 37.08375 4.335 37.0425 0 37 C0 24.79 0 12.58 0 0 Z " fill="#36B1A7" transform="translate(218,25)"/>
<path d="M0 0 C8.58 0 17.16 0 26 0 C25.67 1.32 25.34 2.64 25 4 C20.73631867 5.05357377 16.75556288 5.06912131 12.375 5 C7.09018312 4.86550787 7.09018312 4.86550787 2 6 C2 9.3 2 12.6 2 16 C1.34 16.33 0.68 16.66 0 17 C0 11.39 0 5.78 0 0 Z " fill="#30B3E3" transform="translate(39,0)"/>
<path d="M0 0 C0.99 0.33 1.98 0.66 3 1 C2.9772479 4.93878938 2.90000758 8.87465887 2.8125 12.8125 C2.80669922 13.93205078 2.80089844 15.05160156 2.79492188 16.20507812 C2.76591797 17.27822266 2.73691406 18.35136719 2.70703125 19.45703125 C2.6913208 20.44678955 2.67561035 21.43654785 2.65942383 22.45629883 C2 25 2 25 -0.54418945 26.84643555 C-1.35460693 27.22711182 -2.16502441 27.60778809 -3 28 C-3.02898816 24.06251542 -3.04679464 20.12505821 -3.0625 16.1875 C-3.07087891 15.06794922 -3.07925781 13.94839844 -3.08789062 12.79492188 C-3.09111328 11.72177734 -3.09433594 10.64863281 -3.09765625 9.54296875 C-3.10289307 8.55321045 -3.10812988 7.56345215 -3.11352539 6.54370117 C-3 4 -3 4 -2 1 C-1.34 0.67 -0.68 0.34 0 0 Z " fill="#27C1E9" transform="translate(5,31)"/>
<path d="M0 0 C4.455 0.99 4.455 0.99 9 2 C9.28530624 5.37929391 9.4381378 8.63012531 9 12 C6.75 14.25 6.75 14.25 4 15 C1.6875 14.1875 1.6875 14.1875 0 13 C0.99 10.36 1.98 7.72 3 5 C2.34 5 1.68 5 1 5 C0.67 3.35 0.34 1.7 0 0 Z " fill="#22B7A7" transform="translate(242,45)"/>
<path d="M0 0 C1.98 0.66 3.96 1.32 6 2 C6 3.98 6 5.96 6 8 C6.66 8.33 7.32 8.66 8 9 C7.34 9 6.68 9 6 9 C6 9.99 6 10.98 6 12 C3.03 12 0.06 12 -3 12 C-3.33 11.01 -3.66 10.02 -4 9 C-3.34 9 -2.68 9 -2 9 C-2 8.01 -2 7.02 -2 6 C-1.01 6 -0.02 6 1 6 C0.01 5.34 -0.98 4.68 -2 4 C-1.34 2.68 -0.68 1.36 0 0 Z " fill="#17BDAC" transform="translate(279,38)"/>
<path d="M0 0 C8.91 0 17.82 0 27 0 C27.33 1.65 27.66 3.3 28 5 C25.49502996 6.25248502 23.79146726 6.11374406 20.9921875 6.09765625 C20.00605469 6.09443359 19.01992188 6.09121094 18.00390625 6.08789062 C16.97136719 6.07951172 15.93882813 6.07113281 14.875 6.0625 C13.31458984 6.05573242 13.31458984 6.05573242 11.72265625 6.04882812 C9.14838038 6.03701952 6.57421854 6.02055075 4 6 C4 5.67 4 5.34 4 5 C10.93 5 17.86 5 25 5 C25 4.01 25 3.02 25 2 C16.42 2 7.84 2 -1 2 C-0.67 1.34 -0.34 0.68 0 0 Z " fill="#45A7CD" transform="translate(4,30)"/>
<path d="M0 0 C0.33 0.66 0.66 1.32 1 2 C0.01 3.485 0.01 3.485 -1 5 C-0.66179847 7.01954441 -0.66179847 7.01954441 0 9 C0 12.88291746 -1.37860494 14.46752535 -3.5 17.6875 C-4.1496875 18.68136719 -4.799375 19.67523438 -5.46875 20.69921875 C-6.22671875 21.83810547 -6.22671875 21.83810547 -7 23 C-7.33 21.68 -7.66 20.36 -8 19 C-7.34 19 -6.68 19 -6 19 C-6 18.01 -6 17.02 -6 16 C-5.34 16 -4.68 16 -4 16 C-4 14.68 -4 13.36 -4 12 C-3.67 11.67 -3.34 11.34 -3 11 C-3.99 11 -4.98 11 -6 11 C-4.54955729 6.89041233 -2.48889248 3.56741255 0 0 Z " fill="#2EAEA6" transform="translate(55,41)"/>
<path d="M0 0 C0.66 0 1.32 0 2 0 C0.66958425 9.17286652 0.66958425 9.17286652 -2.125 12.625 C-2.74375 13.07875 -3.3625 13.5325 -4 14 C-4.66 13.67 -5.32 13.34 -6 13 C-5.43697042 9.05879291 -4.3208055 6.2491277 -2 3 C-1.34 3 -0.68 3 0 3 C0 2.01 0 1.02 0 0 Z " fill="#1FB5A6" transform="translate(59,37)"/>
<path d="M0 0 C1.32 0 2.64 0 4 0 C3.45276317 3.37462715 2.9451 5.08235 1 8 C0.01 8 -0.98 8 -2 8 C-2.33 8.66 -2.66 9.32 -3 10 C-3.66 9.67 -4.32 9.34 -5 9 C-4.67 7.35 -4.34 5.7 -4 4 C-3.34 4 -2.68 4 -2 4 C-1.34 2.68 -0.68 1.36 0 0 Z " fill="#1FB8A8" transform="translate(291,27)"/>
<path d="M0 0 C1.24546405 2.49092811 0.7767578 3.41080733 0 6 C0.99 6 1.98 6 3 6 C1.35821735 10.77609498 -1.26546702 14.79382904 -4 19 C-4.66 17.68 -5.32 16.36 -6 15 C-5.01 15 -4.02 15 -3 15 C-3 13.68 -3 12.36 -3 11 C-2.34 10.67 -1.68 10.34 -1 10 C-1 9.34 -1 8.68 -1 8 C-1.99 8 -2.98 8 -4 8 C-2.87548273 5.0280615 -1.77706209 2.66559313 0 0 Z " fill="#42A8CE" transform="translate(36,34)"/>
<path d="M0 0 C2.64 0 5.28 0 8 0 C8.66 2.31 9.32 4.62 10 7 C6.66135596 6.42437172 5.30897368 5.40936384 3 3 C2.01 2.67 1.02 2.34 0 2 C0 2.99 0 3.98 0 5 C-0.66 5 -1.32 5 -2 5 C-1.34 3.35 -0.68 1.7 0 0 Z " fill="#2FB2A8" transform="translate(181,25)"/>
<path d="M0 0 C4.455 0.99 4.455 0.99 9 2 C7.52307692 6.67692308 7.52307692 6.67692308 4.875 8.3125 C3.946875 8.6528125 3.946875 8.6528125 3 9 C3 7.68 3 6.36 3 5 C2.34 5 1.68 5 1 5 C0.67 3.35 0.34 1.7 0 0 Z " fill="#1BBDAF" transform="translate(242,45)"/>
<path d="M0 0 C3.34373475 0.55728913 6.03312999 1.35173889 9 3 C9 4.65 9 6.3 9 8 C7.68 8.33 6.36 8.66 5 9 C4.87625 8.360625 4.7525 7.72125 4.625 7.0625 C4.41875 6.381875 4.2125 5.70125 4 5 C3.34 4.67 2.68 4.34 2 4 C2 3.34 2 2.68 2 2 C1.34 2 0.68 2 0 2 C0 1.34 0 0.68 0 0 Z " fill="#15BCAD" transform="translate(182,29)"/>
<path d="M0 0 C0.66 0.33 1.32 0.66 2 1 C2 1.99 2 2.98 2 4 C1.34 4 0.68 4 0 4 C-0.33 4.99 -0.66 5.98 -1 7 C-1.33 7.99 -1.66 8.98 -2 10 C-2.66 10 -3.32 10 -4 10 C-4.625 7.1875 -4.625 7.1875 -5 4 C-3 1 -3 1 0 0 Z " fill="#36B0DD" transform="translate(47,41)"/>
<path d="M0 0 C2.28819232 0.00358651 4.52719924 0.10154887 6.8046875 0.31640625 C6.1446875 1.63640625 5.4846875 2.95640625 4.8046875 4.31640625 C4.4746875 3.65640625 4.1446875 2.99640625 3.8046875 2.31640625 C-0.65986231 3.68057425 -2.4048262 5.65990696 -5.1953125 9.31640625 C-5.8553125 9.31640625 -6.5153125 9.31640625 -7.1953125 9.31640625 C-6.54861836 7.97327226 -5.87627672 6.64249447 -5.1953125 5.31640625 C-4.669375 3.95515625 -4.669375 3.95515625 -4.1328125 2.56640625 C-2.1953125 0.31640625 -2.1953125 0.31640625 0 0 Z " fill="#3FAC9F" transform="translate(291.1953125,24.68359375)"/>
<path d="M0 0 C1.65 0.33 3.3 0.66 5 1 C4.125 5.75 4.125 5.75 3 8 C1.68 7.67 0.36 7.34 -1 7 C-0.67 4.69 -0.34 2.38 0 0 Z " fill="#19BEB1" transform="translate(63,28)"/>
<path d="M0 0 C2.64 0 5.28 0 8 0 C8.66 1.32 9.32 2.64 10 4 C8.35 3.67 6.7 3.34 5 3 C5.33 4.98 5.66 6.96 6 9 C0.42857143 3.85714286 0.42857143 3.85714286 0 0 Z " fill="#3AB1A4" transform="translate(264,25)"/>
<path d="M0 0 C6.6 0 13.2 0 20 0 C20.66 1.98 21.32 3.96 22 6 C21.34 6 20.68 6 20 6 C19.34 4.68 18.68 3.36 18 2 C12.06 2 6.12 2 0 2 C0 1.34 0 0.68 0 0 Z " fill="#36B0A6" transform="translate(175,53)"/>
<path d="M0 0 C1.32 0 2.64 0 4 0 C3.7834375 1.051875 3.7834375 1.051875 3.5625 2.125 C2.98521625 5.07556141 2.48304859 8.03270151 2 11 C1.34 11 0.68 11 0 11 C0 7.37 0 3.74 0 0 Z " fill="#16BCAC" transform="translate(37,71)"/>
<path d="M0 0 C0.33 0.99 0.66 1.98 1 3 C2.32 3 3.64 3 5 3 C3.6302836 6.99500618 1.74277578 9.80009492 -1 13 C-0.44271087 9.65626525 0.35173889 6.96687001 2 4 C0.68 4.33 -0.64 4.66 -2 5 C-1.34 3.35 -0.68 1.7 0 0 Z " fill="#2EAEA1" transform="translate(70,38)"/>
<path d="M0 0 C2.375 -0.1875 2.375 -0.1875 5 0 C7 3 7 3 6.625 5.1875 C6.41875 5.785625 6.2125 6.38375 6 7 C5.34 7 4.68 7 4 7 C4 6.34 4 5.68 4 5 C3.01 4.67 2.02 4.34 1 4 C0.3125 1.9375 0.3125 1.9375 0 0 Z " fill="#17BCAD" transform="translate(269,30)"/>
<path d="M0 0 C4.875 4.75 4.875 4.75 6 7 C4.35 7.33 2.7 7.66 1 8 C-1.125 3.375 -1.125 3.375 0 0 Z " fill="#15BCA8" transform="translate(290,53)"/>
<path d="M0 0 C1.07174763 3.65188082 0.76411467 6.26432828 0 10 C-0.99 10 -1.98 10 -3 10 C-3.33 10.99 -3.66 11.98 -4 13 C-4.33 12.34 -4.66 11.68 -5 11 C-4.00390625 8.3984375 -4.00390625 8.3984375 -2.5625 5.375 C-2.08941406 4.37210938 -1.61632812 3.36921875 -1.12890625 2.3359375 C-0.75636719 1.56507812 -0.38382813 0.79421875 0 0 Z " fill="#31B3A6" transform="translate(178,31)"/>
<path d="M0 0 C0.66 0.33 1.32 0.66 2 1 C2 2.98 2 4.96 2 7 C1.01 7 0.02 7 -1 7 C-1 7.66 -1 8.32 -1 9 C-1.66 9 -2.32 9 -3 9 C-3 7.35 -3 5.7 -3 4 C-2.01 4 -1.02 4 0 4 C0 2.68 0 1.36 0 0 Z " fill="#2FB3E1" transform="translate(56,26)"/>
<path d="M0 0 C1 3 1 3 0 6 C1.32 6 2.64 6 4 6 C4 5.01 4 4.02 4 3 C4.99 3 5.98 3 7 3 C6.67 4.32 6.34 5.64 6 7 C3.36 7 0.72 7 -2 7 C-1.125 2.25 -1.125 2.25 0 0 Z " fill="#32AEA0" transform="translate(167,55)"/>
<path d="M0 0 C0.33 0 0.66 0 1 0 C1.33 6.93 1.66 13.86 2 21 C1.01 21.33 0.02 21.66 -1 22 C-0.67 14.74 -0.34 7.48 0 0 Z " fill="#3FA8D4" transform="translate(7,36)"/>
<path d="M0 0 C-0.33 1.98 -0.66 3.96 -1 6 C-2.65 5.67 -4.3 5.34 -6 5 C-4.87312259 1.61936778 -3.78825335 0 0 0 Z " fill="#31B1DD" transform="translate(43,52)"/>
<path d="M0 0 C0.99 0 1.98 0 3 0 C3 0.66 3 1.32 3 2 C3.99 2.33 4.98 2.66 6 3 C5.67 4.32 5.34 5.64 5 7 C4.34 6.34 3.68 5.68 3 5 C2.34 5.99 1.68 6.98 1 8 C0.67 5.36 0.34 2.72 0 0 Z " fill="#27B8A7" transform="translate(181,31)"/>
<path d="M0 0 C1.32 0.33 2.64 0.66 4 1 C4 2.32 4 3.64 4 5 C3.01 5 2.02 5 1 5 C0.67 5.99 0.34 6.98 0 8 C0 5.36 0 2.72 0 0 Z " fill="#36AEE8" transform="translate(3,47)"/>
<path d="M0 0 C0.66 0 1.32 0 2 0 C1.67 2.31 1.34 4.62 1 7 C-0.65 7 -2.3 7 -4 7 C-3.34 5.68 -2.68 4.36 -2 3 C-1.34 3 -0.68 3 0 3 C0 2.01 0 1.02 0 0 Z " fill="#18BBB0" transform="translate(59,37)"/>
<path d="M0 0 C1.68762851 1.6454378 3.3540349 3.31288577 5 5 C5 5.33 5 5.66 5 6 C1.7 6 -1.6 6 -5 6 C-5 5.67 -5 5.34 -5 5 C-3.02 4.34 -1.04 3.68 1 3 C0.67 2.01 0.34 1.02 0 0 Z " fill="#39AC9D" transform="translate(294,56)"/>
<path d="M0 0 C0.33 0 0.66 0 1 0 C1 1.65 1 3.3 1 5 C-0.65 5 -2.3 5 -4 5 C-4.33 4.01 -4.66 3.02 -5 2 C-3.35 2 -1.7 2 0 2 C0 1.34 0 0.68 0 0 Z " fill="#2AB9E6" transform="translate(21,56)"/>
<path d="M0 0 C0.99 0 1.98 0 3 0 C2.43628586 3.26954202 1.50037734 4.82575883 -1 7 C-1.625 5.1875 -1.625 5.1875 -2 3 C-1.34 2.01 -0.68 1.02 0 0 Z " fill="#19BCAA" transform="translate(69,42)"/>
<path d="M0 0 C1.04449911 3.13349732 0.93423645 3.98968256 0 7 C-1.32 7.33 -2.64 7.66 -4 8 C-2.87548273 5.0280615 -1.77706209 2.66559313 0 0 Z " fill="#2EB2A3" transform="translate(67,43)"/>
<path d="M0 0 C0.99 0.33 1.98 0.66 3 1 C3 1.66 3 2.32 3 3 C3.66 3 4.32 3 5 3 C5.33 4.98 5.66 6.96 6 9 C2.91910327 6.22719294 1.31224548 3.93673644 0 0 Z " fill="#35AFA3" transform="translate(270,34)"/>
<path d="M0 0 C1.32 0.33 2.64 0.66 4 1 C3.25 5.75 3.25 5.75 1 8 C1.020625 7.05125 1.04125 6.1025 1.0625 5.125 C1.22551826 2.09333717 1.22551826 2.09333717 0 0 Z " fill="#30AEA6" transform="translate(64,28)"/>
<path d="M0 0 C1.32 0.66 2.64 1.32 4 2 C4 2.66 4 3.32 4 4 C2.02 4 0.04 4 -2 4 C-1.34 2.68 -0.68 1.36 0 0 Z " fill="#14BCAA" transform="translate(271,52)"/>
<path d="M0 0 C1.98 0.495 1.98 0.495 4 1 C3.67 2.65 3.34 4.3 3 6 C1.68 5.67 0.36 5.34 -1 5 C-0.67 3.35 -0.34 1.7 0 0 Z " fill="#18BFB3" transform="translate(195,47)"/>
</svg>
